<?xml version="1.0" encoding="UTF-8" standalone="no"?>
<!DOCTYPE svg PUBLIC "-//W3C//DTD SVG 1.1//EN" "http://www.w3.org/Graphics/SVG/1.1/DTD/svg11.dtd">
<svg xmlns="http://www.w3.org/2000/svg" version="1.1" viewBox="230.00 275.00 565.00 550.00">
<g stroke-width="2.00" fill="none" stroke-linecap="butt">
<path stroke="#ffffff" vector-effect="non-scaling-stroke" d="
  M 646.57 304.50
  C 650.33 304.39 655.20 305.34 657.68 301.83
  Q 659.23 299.63 658.31 297.00
  C 656.82 292.76 649.74 293.22 646.15 293.38
  A 0.51 0.51 0.0 0 1 645.62 292.86
  Q 645.75 288.88 645.67 284.74
  C 645.57 279.96 639.14 277.58 636.53 282.27
  C 635.18 284.69 635.70 289.76 635.77 292.69
  Q 635.78 293.40 635.07 293.40
  C 631.15 293.43 622.92 292.20 621.81 297.56
  C 620.15 305.55 630.25 304.27 634.69 304.20
  Q 635.25 304.19 635.25 304.75
  C 635.25 307.37 634.77 311.50 635.71 313.83
  C 636.71 316.33 639.46 318.53 642.22 317.44
  C 647.30 315.42 645.91 309.29 646.05 305.03
  Q 646.06 304.51 646.57 304.50"
/>
<path stroke="#ffffff" vector-effect="non-scaling-stroke" d="
  M 438.95 452.00
  C 437.93 448.77 439.49 444.73 440.99 441.85
  A 1.57 1.56 -66.5 0 0 440.13 439.65
  C 426.69 434.86 411.99 434.56 398.03 436.65
  C 394.02 437.25 375.11 441.27 374.98 446.25
  Q 374.72 456.43 375.07 466.44
  A 0.65 0.65 0.0 0 1 374.43 467.11
  L 358.23 467.33
  A 0.48 0.47 -0.6 0 0 357.76 467.80
  C 357.82 504.50 358.00 541.24 357.60 577.95
  Q 357.50 586.60 357.79 595.25
  Q 357.82 596.04 359.49 597.51"
/>
<path stroke="#ffffff" vector-effect="non-scaling-stroke" d="
  M 359.49 597.51
  L 347.84 602.92
  A 0.48 0.48 0.0 0 1 347.16 602.48
  L 347.29 459.53
  Q 347.29 459.11 347.72 459.11
  L 369.50 459.21
  Q 369.96 459.21 369.96 458.75
  L 369.86 436.72
  A 0.72 0.72 0.0 0 0 369.15 436.01
  Q 353.44 435.99 337.57 436.19
  Q 332.87 436.25 330.17 437.57
  C 323.30 440.94 321.96 446.62 321.97 453.97
  Q 321.97 457.89 321.97 461.46"
/>
<path stroke="#ffffff" vector-effect="non-scaling-stroke" d="
  M 321.97 461.46
  Q 296.78 461.27 271.70 461.03
  C 268.56 461.00 265.16 461.20 261.90 461.26
  Q 257.12 461.35 254.76 462.44
  C 249.78 464.72 246.88 470.10 247.55 475.56
  C 248.56 483.78 258.06 483.27 264.00 483.22
  Q 292.92 482.99 321.98 483.22"
/>
<path stroke="#ffffff" vector-effect="non-scaling-stroke" d="
  M 321.98 483.22
  L 321.81 509.71"
/>
<path stroke="#ffffff" vector-effect="non-scaling-stroke" d="
  M 321.81 509.71
  Q 321.53 509.68 321.31 509.55
  Q 320.91 509.31 320.87 508.84
  Q 320.83 508.26 320.50 507.74
  A 0.99 0.97 -15.4 0 0 319.69 507.29
  Q 301.90 507.00 284.12 507.16
  C 273.89 507.24 261.16 506.85 249.67 507.17
  C 241.61 507.40 238.63 511.14 238.05 519.00
  C 236.70 537.53 235.91 557.34 238.05 575.24
  Q 239.36 586.18 242.78 605.50
  Q 243.89 611.81 251.01 635.77
  Q 254.01 645.86 264.40 668.08
  C 279.48 700.31 303.76 729.75 331.72 753.47
  C 352.47 771.07 376.66 785.12 401.40 796.31
  Q 426.14 807.50 454.23 813.66
  C 458.03 814.49 463.81 815.94 468.76 816.66
  C 475.36 817.61 481.86 818.84 488.46 819.18
  C 509.85 820.29 526.08 820.81 542.88 818.86
  Q 603.18 811.89 653.31 783.32
  Q 671.62 772.89 691.05 756.89
  C 719.53 733.43 741.63 705.89 757.81 674.25
  Q 765.57 659.06 767.40 654.49
  Q 775.49 634.30 778.24 622.99
  C 780.26 614.64 782.75 605.74 784.20 597.94
  C 788.92 572.53 789.59 546.66 787.70 520.92
  C 787.31 515.65 786.23 507.52 779.25 507.36
  C 764.47 507.02 748.78 507.33 735.00 507.25
  Q 719.56 507.15 703.97 507.32"
/>
<path stroke="#ffffff" vector-effect="non-scaling-stroke" d="
  M 703.97 507.32
  L 703.99 482.86"
/>
<path stroke="#ffffff" vector-effect="non-scaling-stroke" d="
  M 703.99 482.86
  Q 729.22 483.19 754.34 483.06
  C 759.58 483.03 771.75 484.71 775.39 480.39
  C 780.21 474.68 777.14 466.60 771.09 463.21
  C 767.69 461.30 763.55 461.34 759.50 461.33
  Q 731.83 461.32 703.98 461.30"
/>
<path stroke="#ffffff" vector-effect="non-scaling-stroke" d="
  M 703.98 461.30
  Q 703.88 457.44 703.92 453.00
  C 704.01 444.71 698.12 436.29 689.50 436.21
  Q 672.95 436.05 656.37 436.20
  A 0.34 0.34 0.0 0 0 656.03 436.54
  L 655.98 458.58
  A 0.60 0.60 0.0 0 0 656.58 459.18
  L 677.56 459.23
  Q 678.13 459.23 678.13 459.81
  L 678.22 602.22
  Q 678.22 602.97 677.56 602.63
  L 669.37 598.44"
/>
<path stroke="#ffffff" vector-effect="non-scaling-stroke" d="
  M 669.37 598.44
  L 669.43 468.42
  A 1.44 1.43 0.0 0 0 667.99 466.99
  L 651.15 466.97
  A 0.81 0.81 0.0 0 1 650.34 466.15
  L 650.37 445.40
  A 1.75 1.75 0.0 0 0 649.47 443.87
  C 634.43 435.56 618.51 434.09 600.25 436.00
  Q 593.56 436.70 584.19 441.03"
/>
<path stroke="#ffffff" vector-effect="non-scaling-stroke" d="
  M 584.19 441.03
  L 580.89 434.24
  A 0.41 0.40 66.4 0 1 581.10 433.69
  C 586.43 431.56 591.93 429.38 597.45 428.38
  Q 624.33 423.48 649.81 435.66
  A 0.60 0.60 0.0 0 0 650.67 435.18
  C 652.87 413.21 651.74 392.86 642.95 371.66
  Q 622.97 323.45 576.86 299.12
  C 521.93 270.13 452.74 283.06 410.79 327.79
  C 383.46 356.93 369.92 394.30 375.00 434.28
  Q 375.16 435.55 376.34 435.04
  C 381.31 432.87 386.54 430.68 391.71 429.48
  C 409.14 425.45 429.11 426.25 445.45 434.32
  A 0.83 0.82 -61.7 0 1 445.79 435.48
  Q 441.27 443.26 438.95 452.00"
/>
<path stroke="#ffffff" vector-effect="non-scaling-stroke" d="
  M 584.19 441.03
  C 587.80 449.51 588.55 456.22 589.98 464.38"
/>
<path stroke="#ffffff" vector-effect="non-scaling-stroke" d="
  M 589.98 464.38
  C 591.16 477.12 588.43 490.23 583.38 502.28
  C 573.78 525.20 550.77 541.36 526.66 545.73
  A 1.00 1.00 0.0 0 0 525.84 546.70
  L 525.57 573.04
  A 0.47 0.46 -0.0 0 0 526.04 573.50
  L 533.99 573.47
  A 0.27 0.27 0.0 0 1 534.26 573.74
  L 534.26 612.77
  A 0.41 0.41 0.0 0 0 534.92 613.10
  L 544.22 605.85"
/>
<path stroke="#ffffff" vector-effect="non-scaling-stroke" d="
  M 544.22 605.85
  Q 559.74 595.83 574.74 592.01
  Q 589.61 588.24 593.99 587.73
  C 619.90 584.71 645.22 587.81 669.37 598.44"
/>
<path stroke="#ffffff" vector-effect="non-scaling-stroke" d="
  M 703.98 461.30
  L 703.99 482.86"
/>
<path stroke="#ffffff" vector-effect="non-scaling-stroke" d="
  M 703.97 507.32
  Q 704.12 566.59 703.98 625.50
  Q 703.96 635.38 696.93 640.94"
/>
<path stroke="#ffffff" vector-effect="non-scaling-stroke" d="
  M 696.93 640.94
  Q 690.26 644.73 683.86 643.68
  C 670.53 641.49 656.20 638.64 643.83 637.23
  C 607.56 633.09 568.99 634.02 535.22 647.54
  A 1.83 1.82 -11.5 0 0 534.08 649.26
  Q 534.25 661.62 534.18 674.24
  C 534.09 691.78 517.06 702.02 501.97 692.52"
/>
<path stroke="#ffffff" vector-effect="non-scaling-stroke" d="
  M 501.97 692.52
  Q 492.99 686.59 492.97 675.18"
/>
<path stroke="#ffffff" vector-effect="non-scaling-stroke" d="
  M 492.97 675.18
  Q 492.67 662.76 492.79 650.25
  Q 492.81 648.98 491.24 648.25
  Q 482.07 643.99 475.25 642.15
  C 431.79 630.48 386.02 635.47 341.99 643.43
  Q 335.76 644.56 329.78 641.49"
/>
<path stroke="#ffffff" vector-effect="non-scaling-stroke" d="
  M 329.78 641.49
  C 321.08 636.88 321.85 629.96 321.88 621.48
  Q 322.04 568.24 321.93 515.00
  Q 321.92 512.35 321.81 509.71"
/>
<path stroke="#ffffff" vector-effect="non-scaling-stroke" d="
  M 321.98 483.22
  L 321.97 461.46"
/>
<path stroke="#ffffff" vector-effect="non-scaling-stroke" d="
  M 359.49 597.51
  Q 364.07 595.83 369.05 593.84
  C 375.08 591.43 383.36 589.97 390.39 588.75
  C 426.51 582.45 463.54 590.73 491.88 613.29
  Q 492.89 614.10 492.88 612.81
  Q 492.68 593.13 493.08 574.50
  Q 493.09 574.17 493.59 573.18"
/>
<path stroke="#ffffff" vector-effect="non-scaling-stroke" d="
  M 493.59 573.18
  L 500.58 573.04
  Q 501.04 573.03 501.04 572.57
  L 501.08 546.68
  Q 501.08 546.24 500.65 546.15
  C 484.44 542.97 470.89 537.13 459.29 525.19
  Q 456.22 522.04 452.72 518.21"
/>
<path stroke="#ffffff" vector-effect="non-scaling-stroke" d="
  M 452.72 518.21
  Q 447.66 511.03 443.89 503.36
  C 436.25 487.75 435.25 468.94 438.95 452.00"
/>
<path stroke="#ffffff" vector-effect="non-scaling-stroke" d="
  M 452.72 518.21
  Q 451.61 527.53 454.90 536.53
  C 461.11 553.57 474.91 564.69 490.38 573.01
  Q 490.80 573.24 491.27 573.23
  L 493.59 573.18"
/>
<path stroke="#ffffff" vector-effect="non-scaling-stroke" d="
  M 544.22 605.85
  Q 543.05 605.86 544.33 604.70
  Q 544.72 604.35 544.83 603.83
  Q 547.15 592.64 546.79 581.21
  A 0.87 0.86 0.7 0 0 545.98 580.38
  L 543.04 580.17
  A 2.40 2.40 0.0 0 1 540.82 578.08
  Q 540.18 573.18 544.75 571.51
  C 553.91 568.17 562.01 565.26 570.01 559.45
  C 588.36 546.10 602.59 525.80 603.63 502.50
  C 604.07 492.60 603.02 486.14 599.69 477.06
  C 598.33 473.35 596.30 470.09 594.21 466.77
  Q 592.37 463.85 589.98 464.38"
/>
<path stroke="#ffffff" vector-effect="non-scaling-stroke" d="
  M 329.78 641.49
  Q 322.99 647.18 324.29 657.03
  Q 324.62 659.49 326.92 661.83
  C 330.03 664.98 332.06 666.09 336.75 666.17
  C 342.74 666.27 348.23 665.44 354.00 665.17
  C 364.59 664.69 374.94 663.38 385.50 663.09
  C 414.12 662.29 441.29 662.45 470.32 668.37
  C 474.40 669.21 478.64 670.58 482.87 671.67
  Q 486.68 672.66 489.78 675.12
  Q 490.18 675.44 490.68 675.30
  Q 491.83 674.99 492.97 675.18"
/>
<path stroke="#ffffff" vector-effect="non-scaling-stroke" d="
  M 501.97 692.52
  Q 502.07 693.07 500.60 693.57
  A 0.52 0.52 0.0 0 0 500.26 694.12
  C 500.89 699.49 500.62 704.78 500.72 710.18
  Q 500.80 715.26 502.20 718.32
  C 506.55 727.83 518.86 733.59 528.49 730.12
  Q 534.01 728.13 535.41 727.18
  Q 541.58 722.97 544.17 715.24
  C 545.52 711.20 545.15 706.41 545.17 702.00
  Q 545.22 689.23 545.04 675.95
  A 2.09 2.09 0.0 0 1 546.61 673.90
  C 549.87 673.07 553.39 671.43 556.33 670.60
  Q 566.01 667.85 575.99 666.45
  C 583.44 665.40 590.98 664.22 598.36 663.73
  C 625.67 661.93 647.01 663.04 676.66 665.09
  C 687.77 665.86 702.90 670.07 704.49 653.73
  Q 704.94 649.11 704.18 646.99
  Q 702.76 643.01 696.93 640.94"
/>
<path stroke="#ffffff" vector-effect="non-scaling-stroke" d="
  M 333.54 366.67
  C 337.16 366.83 344.61 367.48 347.41 365.17
  C 349.89 363.13 349.88 359.35 347.46 357.24
  C 344.85 354.98 337.22 355.40 333.71 355.59
  A 0.78 0.78 0.0 0 1 332.88 354.79
  C 332.96 351.11 334.74 334.48 325.59 338.63
  C 320.93 340.74 322.21 350.97 322.30 355.20
  A 0.53 0.53 0.0 0 1 321.77 355.74
  C 317.82 355.73 307.74 354.44 305.65 358.67
  C 304.09 361.86 305.81 364.74 308.77 366.06
  C 311.86 367.44 317.95 366.81 321.41 366.75
  Q 321.93 366.74 321.94 367.26
  C 322.04 372.55 320.29 379.51 325.39 383.12
  C 329.75 386.21 333.23 380.60 333.12 376.74
  Q 332.98 371.97 333.03 367.15
  Q 333.04 366.64 333.54 366.67"
/>
<path stroke="#ffffff" vector-effect="non-scaling-stroke" d="
  M 697.76 355.42
  C 697.64 351.17 698.71 342.92 695.83 339.71
  C 692.29 335.77 686.87 339.15 686.76 343.75
  Q 686.63 349.62 686.73 355.34
  A 0.63 0.63 0.0 0 1 686.06 355.98
  C 682.61 355.78 674.69 355.07 671.76 356.93
  C 668.73 358.86 668.91 364.05 671.97 365.70
  C 674.79 367.23 682.63 366.35 686.04 366.30
  A 0.59 0.58 -90.0 0 1 686.63 366.90
  C 686.53 371.21 685.94 378.18 688.27 381.75
  Q 690.53 385.22 693.91 383.43
  C 698.85 380.81 697.78 373.16 697.67 367.05
  A 0.53 0.52 90.0 0 1 698.20 366.51
  Q 702.86 366.57 707.48 366.61
  C 716.16 366.69 716.71 355.80 708.26 355.99
  Q 705.06 356.06 698.31 355.96
  Q 697.77 355.95 697.76 355.42"
/>
<path stroke="#ffffff" vector-effect="non-scaling-stroke" d="
  M 408.18 404.46
  Q 425.40 403.07 442.98 407.31
  C 448.45 408.63 455.08 410.78 459.16 414.81
  Q 459.50 415.15 459.84 414.81
  C 489.52 385.69 536.35 385.84 566.13 414.08
  Q 566.50 414.42 566.93 414.18
  C 583.00 405.23 599.29 403.36 617.46 404.53"
/>
<path stroke="#ffffff" vector-effect="non-scaling-stroke" d="
  M 617.46 404.53
  L 623.14 405.16
  A 0.57 0.57 0.0 0 0 623.77 404.52
  C 623.05 399.35 622.43 394.18 620.93 389.27
  C 615.56 371.64 607.35 358.67 594.81 344.62"
/>
<path stroke="#ffffff" vector-effect="non-scaling-stroke" d="
  M 594.81 344.62
  L 576.16 328.95"
/>
<path stroke="#ffffff" vector-effect="non-scaling-stroke" d="
  M 576.16 328.95
  C 551.83 311.71 516.33 305.42 487.49 312.39
  C 449.09 321.68 418.87 347.49 405.73 385.01
  Q 402.55 394.09 401.22 404.55
  Q 401.15 405.08 401.69 405.04
  L 408.18 404.46"
/>
<path stroke="#ffffff" vector-effect="non-scaling-stroke" d="
  M 576.16 328.95
  Q 575.53 330.05 575.11 329.90
  A 8.74 8.51 -16.5 0 1 573.15 328.87
  Q 568.74 325.74 563.86 323.24
  C 561.90 322.24 559.57 322.02 557.39 321.19
  Q 554.17 319.95 547.00 317.71
  C 527.37 311.59 510.13 311.52 490.57 315.79
  C 487.52 316.46 484.62 317.82 481.57 318.83
  C 472.66 321.80 463.37 326.18 456.50 330.95
  Q 445.47 338.59 441.89 341.89
  C 427.84 354.82 416.03 373.18 410.80 391.78
  Q 410.05 394.44 408.98 396.99
  Q 408.22 398.78 408.18 404.46"
/>
<path stroke="#ffffff" vector-effect="non-scaling-stroke" d="
  M 594.81 344.62
  Q 594.37 348.64 596.72 351.03
  Q 597.05 351.36 597.17 351.81
  Q 597.52 353.09 598.56 353.84
  A 0.82 0.82 0.0 0 1 598.89 354.59
  Q 598.71 356.21 599.96 357.14
  Q 600.32 357.40 600.53 357.80
  Q 601.57 359.80 602.69 361.71
  Q 602.72 361.77 602.79 361.80
  Q 602.92 361.85 603.06 361.87
  Q 603.36 361.91 603.38 362.22
  Q 603.42 363.01 604.02 363.47
  Q 604.41 363.76 604.62 364.20
  C 608.83 373.01 613.01 381.93 615.17 391.50
  C 615.95 394.99 616.07 400.15 617.46 404.53"
/>
<path stroke="#ffffff" vector-effect="non-scaling-stroke" d="
  M 562.47 470.12
  A 49.33 49.33 0.0 0 0 513.14 420.79
  A 49.33 49.33 0.0 0 0 463.81 470.12
  A 49.33 49.33 0.0 0 0 513.14 519.45
  A 49.33 49.33 0.0 0 0 562.47 470.12"
/>
<path stroke="#ffffff" vector-effect="non-scaling-stroke" d="
  M 440.10 613.12
  C 436.33 611.86 430.92 611.21 427.05 610.96
  Q 412.11 610.01 397.21 611.38
  C 394.33 611.65 391.15 612.53 388.06 612.92
  A 0.02 0.02 0.0 0 0 388.06 612.96
  Q 413.72 610.68 439.40 613.44
  C 441.07 613.62 443.65 614.42 445.81 614.06
  Q 446.39 613.97 445.81 613.87
  C 444.07 613.59 441.76 613.68 440.10 613.12"
/>
<path stroke="#ffffff" vector-effect="non-scaling-stroke" d="
  M 580.22 613.97
  Q 589.84 612.37 599.25 612.12
  Q 612.82 611.76 626.36 612.59
  Q 636.86 613.23 647.28 614.76
  Q 650.43 615.22 653.40 615.69
  A 0.06 0.06 0.0 0 0 653.42 615.58
  Q 624.67 608.28 594.88 611.12
  Q 587.22 611.86 580.18 613.80
  A 0.09 0.09 0.0 0 0 580.22 613.97"
/>
<path stroke="#ffffff" vector-effect="non-scaling-stroke" d="
  M 476.75 361.56
  A 13.66 13.66 0.0 0 0 463.09 347.90
  A 13.66 13.66 0.0 0 0 449.43 361.56
  A 13.66 13.66 0.0 0 0 463.09 375.22
  A 13.66 13.66 0.0 0 0 476.75 361.56"
/>
<path stroke="#ffffff" vector-effect="non-scaling-stroke" d="
  M 556.10 476.62
  Q 557.60 464.50 552.16 454.56
  C 546.00 443.28 532.61 434.61 519.75 433.54
  Q 501.27 432.01 488.56 444.79
  Q 478.58 454.82 476.77 467.51
  C 476.35 470.48 476.55 474.22 476.54 477.49
  C 476.46 494.43 490.53 511.86 507.87 514.15
  C 526.41 516.59 546.01 508.04 553.28 489.99
  C 554.91 485.95 555.55 481.10 556.10 476.62"
/>
</g>
<path fill="#1c3645" d="
  M 646.05 305.03
  C 645.91 309.29 647.30 315.42 642.22 317.44
  C 639.46 318.53 636.71 316.33 635.71 313.83
  C 634.77 311.50 635.25 307.37 635.25 304.75
  Q 635.25 304.19 634.69 304.20
  C 630.25 304.27 620.15 305.55 621.81 297.56
  C 622.92 292.20 631.15 293.43 635.07 293.40
  Q 635.78 293.40 635.77 292.69
  C 635.70 289.76 635.18 284.69 636.53 282.27
  C 639.14 277.58 645.57 279.96 645.67 284.74
  Q 645.75 288.88 645.62 292.86
  A 0.51 0.51 0.0 0 0 646.15 293.38
  C 649.74 293.22 656.82 292.76 658.31 297.00
  Q 659.23 299.63 657.68 301.83
  C 655.20 305.34 650.33 304.39 646.57 304.50
  Q 646.06 304.51 646.05 305.03
  Z"
/>
<path fill="#1c3645" d="
  M 584.19 441.03
  C 587.80 449.51 588.55 456.22 589.98 464.38
  C 591.16 477.12 588.43 490.23 583.38 502.28
  C 573.78 525.20 550.77 541.36 526.66 545.73
  A 1.00 1.00 0.0 0 0 525.84 546.70
  L 525.57 573.04
  A 0.47 0.46 -0.0 0 0 526.04 573.50
  L 533.99 573.47
  A 0.27 0.27 0.0 0 1 534.26 573.74
  L 534.26 612.77
  A 0.41 0.41 0.0 0 0 534.92 613.10
  L 544.22 605.85
  Q 559.74 595.83 574.74 592.01
  Q 589.61 588.24 593.99 587.73
  C 619.90 584.71 645.22 587.81 669.37 598.44
  L 677.56 602.63
  Q 678.22 602.97 678.22 602.22
  L 678.13 459.81
  Q 678.13 459.23 677.56 459.23
  L 656.58 459.18
  A 0.60 0.60 0.0 0 1 655.98 458.58
  L 656.03 436.54
  A 0.34 0.34 0.0 0 1 656.37 436.20
  Q 672.95 436.05 689.50 436.21
  C 698.12 436.29 704.01 444.71 703.92 453.00
  Q 703.88 457.44 703.98 461.30
  L 703.99 482.86
  L 703.97 507.32
  Q 704.12 566.59 703.98 625.50
  Q 703.96 635.38 696.93 640.94
  Q 690.26 644.73 683.86 643.68
  C 670.53 641.49 656.20 638.64 643.83 637.23
  C 607.56 633.09 568.99 634.02 535.22 647.54
  A 1.83 1.82 -11.5 0 0 534.08 649.26
  Q 534.25 661.62 534.18 674.24
  C 534.09 691.78 517.06 702.02 501.97 692.52
  Q 492.99 686.59 492.97 675.18
  Q 492.67 662.76 492.79 650.25
  Q 492.81 648.98 491.24 648.25
  Q 482.07 643.99 475.25 642.15
  C 431.79 630.48 386.02 635.47 341.99 643.43
  Q 335.76 644.56 329.78 641.49
  C 321.08 636.88 321.85 629.96 321.88 621.48
  Q 322.04 568.24 321.93 515.00
  Q 321.92 512.35 321.81 509.71
  L 321.98 483.22
  L 321.97 461.46
  Q 321.97 457.89 321.97 453.97
  C 321.96 446.62 323.30 440.94 330.17 437.57
  Q 332.87 436.25 337.57 436.19
  Q 353.44 435.99 369.15 436.01
  A 0.72 0.72 0.0 0 1 369.86 436.72
  L 369.96 458.75
  Q 369.96 459.21 369.50 459.21
  L 347.72 459.11
  Q 347.29 459.11 347.29 459.53
  L 347.16 602.48
  A 0.48 0.48 0.0 0 0 347.84 602.92
  L 359.49 597.51
  Q 364.07 595.83 369.05 593.84
  C 375.08 591.43 383.36 589.97 390.39 588.75
  C 426.51 582.45 463.54 590.73 491.88 613.29
  Q 492.89 614.10 492.88 612.81
  Q 492.68 593.13 493.08 574.50
  Q 493.09 574.17 493.59 573.18
  L 500.58 573.04
  Q 501.04 573.03 501.04 572.57
  L 501.08 546.68
  Q 501.08 546.24 500.65 546.15
  C 484.44 542.97 470.89 537.13 459.29 525.19
  Q 456.22 522.04 452.72 518.21
  Q 447.66 511.03 443.89 503.36
  C 436.25 487.75 435.25 468.94 438.95 452.00
  Q 441.27 443.26 445.79 435.48
  A 0.83 0.82 -61.7 0 0 445.45 434.32
  C 429.11 426.25 409.14 425.45 391.71 429.48
  C 386.54 430.68 381.31 432.87 376.34 435.04
  Q 375.16 435.55 375.00 434.28
  C 369.92 394.30 383.46 356.93 410.79 327.79
  C 452.74 283.06 521.93 270.13 576.86 299.12
  Q 622.97 323.45 642.95 371.66
  C 651.74 392.86 652.87 413.21 650.67 435.18
  A 0.60 0.60 0.0 0 1 649.81 435.66
  Q 624.33 423.48 597.45 428.38
  C 591.93 429.38 586.43 431.56 581.10 433.69
  A 0.41 0.40 66.4 0 0 580.89 434.24
  L 584.19 441.03
  Z
  M 408.18 404.46
  Q 425.40 403.07 442.98 407.31
  C 448.45 408.63 455.08 410.78 459.16 414.81
  Q 459.50 415.15 459.84 414.81
  C 489.52 385.69 536.35 385.84 566.13 414.08
  Q 566.50 414.42 566.93 414.18
  C 583.00 405.23 599.29 403.36 617.46 404.53
  L 623.14 405.16
  A 0.57 0.57 0.0 0 0 623.77 404.52
  C 623.05 399.35 622.43 394.18 620.93 389.27
  C 615.56 371.64 607.35 358.67 594.81 344.62
  L 576.16 328.95
  C 551.83 311.71 516.33 305.42 487.49 312.39
  C 449.09 321.68 418.87 347.49 405.73 385.01
  Q 402.55 394.09 401.22 404.55
  Q 401.15 405.08 401.69 405.04
  L 408.18 404.46
  Z
  M 562.47 470.12
  A 49.33 49.33 0.0 0 0 513.14 420.79
  A 49.33 49.33 0.0 0 0 463.81 470.12
  A 49.33 49.33 0.0 0 0 513.14 519.45
  A 49.33 49.33 0.0 0 0 562.47 470.12
  Z
  M 440.10 613.12
  C 436.33 611.86 430.92 611.21 427.05 610.96
  Q 412.11 610.01 397.21 611.38
  C 394.33 611.65 391.15 612.53 388.06 612.92
  A 0.02 0.02 0.0 0 0 388.06 612.96
  Q 413.72 610.68 439.40 613.44
  C 441.07 613.62 443.65 614.42 445.81 614.06
  Q 446.39 613.97 445.81 613.87
  C 444.07 613.59 441.76 613.68 440.10 613.12
  Z
  M 580.22 613.97
  Q 589.84 612.37 599.25 612.12
  Q 612.82 611.76 626.36 612.59
  Q 636.86 613.23 647.28 614.76
  Q 650.43 615.22 653.40 615.69
  A 0.06 0.06 0.0 0 0 653.42 615.58
  Q 624.67 608.28 594.88 611.12
  Q 587.22 611.86 580.18 613.80
  A 0.09 0.09 0.0 0 0 580.22 613.97
  Z"
/>
<path fill="#f9fff9" d="
  M 576.16 328.95
  Q 575.53 330.05 575.11 329.90
  A 8.74 8.51 -16.5 0 1 573.15 328.87
  Q 568.74 325.74 563.86 323.24
  C 561.90 322.24 559.57 322.02 557.39 321.19
  Q 554.17 319.95 547.00 317.71
  C 527.37 311.59 510.13 311.52 490.57 315.79
  C 487.52 316.46 484.62 317.82 481.57 318.83
  C 472.66 321.80 463.37 326.18 456.50 330.95
  Q 445.47 338.59 441.89 341.89
  C 427.84 354.82 416.03 373.18 410.80 391.78
  Q 410.05 394.44 408.98 396.99
  Q 408.22 398.78 408.18 404.46
  L 401.69 405.04
  Q 401.15 405.08 401.22 404.55
  Q 402.55 394.09 405.73 385.01
  C 418.87 347.49 449.09 321.68 487.49 312.39
  C 516.33 305.42 551.83 311.71 576.16 328.95
  Z"
/>
<path fill="#bbf7f7" d="
  M 576.16 328.95
  L 594.81 344.62
  Q 594.37 348.64 596.72 351.03
  Q 597.05 351.36 597.17 351.81
  Q 597.52 353.09 598.56 353.84
  A 0.82 0.82 0.0 0 1 598.89 354.59
  Q 598.71 356.21 599.96 357.14
  Q 600.32 357.40 600.53 357.80
  Q 601.57 359.80 602.69 361.71
  Q 602.72 361.77 602.79 361.80
  Q 602.92 361.85 603.06 361.87
  Q 603.36 361.91 603.38 362.22
  Q 603.42 363.01 604.02 363.47
  Q 604.41 363.76 604.62 364.20
  C 608.83 373.01 613.01 381.93 615.17 391.50
  C 615.95 394.99 616.07 400.15 617.46 404.53
  C 599.29 403.36 583.00 405.23 566.93 414.18
  Q 566.50 414.42 566.13 414.08
  C 536.35 385.84 489.52 385.69 459.84 414.81
  Q 459.50 415.15 459.16 414.81
  C 455.08 410.78 448.45 408.63 442.98 407.31
  Q 425.40 403.07 408.18 404.46
  Q 408.22 398.78 408.98 396.99
  Q 410.05 394.44 410.80 391.78
  C 416.03 373.18 427.84 354.82 441.89 341.89
  Q 445.47 338.59 456.50 330.95
  C 463.37 326.18 472.66 321.80 481.57 318.83
  C 484.62 317.82 487.52 316.46 490.57 315.79
  C 510.13 311.52 527.37 311.59 547.00 317.71
  Q 554.17 319.95 557.39 321.19
  C 559.57 322.02 561.90 322.24 563.86 323.24
  Q 568.74 325.74 573.15 328.87
  A 8.74 8.51 -16.5 0 0 575.11 329.90
  Q 575.53 330.05 576.16 328.95
  Z
  M 476.75 361.56
  A 13.66 13.66 0.0 0 0 463.09 347.90
  A 13.66 13.66 0.0 0 0 449.43 361.56
  A 13.66 13.66 0.0 0 0 463.09 375.22
  A 13.66 13.66 0.0 0 0 476.75 361.56
  Z"
/>
<path fill="#1c3645" d="
  M 333.03 367.15
  Q 332.98 371.97 333.12 376.74
  C 333.23 380.60 329.75 386.21 325.39 383.12
  C 320.29 379.51 322.04 372.55 321.94 367.26
  Q 321.93 366.74 321.41 366.75
  C 317.95 366.81 311.86 367.44 308.77 366.06
  C 305.81 364.74 304.09 361.86 305.65 358.67
  C 307.74 354.44 317.82 355.73 321.77 355.74
  A 0.53 0.53 0.0 0 0 322.30 355.20
  C 322.21 350.97 320.93 340.74 325.59 338.63
  C 334.74 334.48 332.96 351.11 332.88 354.79
  A 0.78 0.78 0.0 0 0 333.71 355.59
  C 337.22 355.40 344.85 354.98 347.46 357.24
  C 349.88 359.35 349.89 363.13 347.41 365.17
  C 344.61 367.48 337.16 366.83 333.54 366.67
  Q 333.04 366.64 333.03 367.15
  Z"
/>
<path fill="#1c3645" d="
  M 698.31 355.96
  Q 705.06 356.06 708.26 355.99
  C 716.71 355.80 716.16 366.69 707.48 366.61
  Q 702.86 366.57 698.20 366.51
  A 0.53 0.52 90.0 0 0 697.67 367.05
  C 697.78 373.16 698.85 380.81 693.91 383.43
  Q 690.53 385.22 688.27 381.75
  C 685.94 378.18 686.53 371.21 686.63 366.90
  A 0.59 0.58 -90.0 0 0 686.04 366.30
  C 682.63 366.35 674.79 367.23 671.97 365.70
  C 668.91 364.05 668.73 358.86 671.76 356.93
  C 674.69 355.07 682.61 355.78 686.06 355.98
  A 0.63 0.63 0.0 0 0 686.73 355.34
  Q 686.63 349.62 686.76 343.75
  C 686.87 339.15 692.29 335.77 695.83 339.71
  C 698.71 342.92 697.64 351.17 697.76 355.42
  Q 697.77 355.95 698.31 355.96
  Z"
/>
<path fill="#95c2ea" d="
  M 594.81 344.62
  C 607.35 358.67 615.56 371.64 620.93 389.27
  C 622.43 394.18 623.05 399.35 623.77 404.52
  A 0.57 0.57 0.0 0 1 623.14 405.16
  L 617.46 404.53
  C 616.07 400.15 615.95 394.99 615.17 391.50
  C 613.01 381.93 608.83 373.01 604.62 364.20
  Q 604.41 363.76 604.02 363.47
  Q 603.42 363.01 603.38 362.22
  Q 603.36 361.91 603.06 361.87
  Q 602.92 361.85 602.79 361.80
  Q 602.72 361.77 602.69 361.71
  Q 601.57 359.80 600.53 357.80
  Q 600.32 357.40 599.96 357.14
  Q 598.71 356.21 598.89 354.59
  A 0.82 0.82 0.0 0 0 598.56 353.84
  Q 597.52 353.09 597.17 351.81
  Q 597.05 351.36 596.72 351.03
  Q 594.37 348.64 594.81 344.62
  Z"
/>
<circle fill="#f9fff9" cx="463.09" cy="361.56" r="13.66"/>
<path fill="#f9fff9" d="
  M 562.47 470.12
  A 49.33 49.33 0.0 0 1 513.14 519.45
  A 49.33 49.33 0.0 0 1 463.81 470.12
  A 49.33 49.33 0.0 0 1 513.14 420.79
  A 49.33 49.33 0.0 0 1 562.47 470.12
  Z
  M 556.10 476.62
  Q 557.60 464.50 552.16 454.56
  C 546.00 443.28 532.61 434.61 519.75 433.54
  Q 501.27 432.01 488.56 444.79
  Q 478.58 454.82 476.77 467.51
  C 476.35 470.48 476.55 474.22 476.54 477.49
  C 476.46 494.43 490.53 511.86 507.87 514.15
  C 526.41 516.59 546.01 508.04 553.28 489.99
  C 554.91 485.95 555.55 481.10 556.10 476.62
  Z"
/>
<path fill="#bbddf7" d="
  M 556.10 476.62
  C 555.55 481.10 554.91 485.95 553.28 489.99
  C 546.01 508.04 526.41 516.59 507.87 514.15
  C 490.53 511.86 476.46 494.43 476.54 477.49
  C 476.55 474.22 476.35 470.48 476.77 467.51
  Q 478.58 454.82 488.56 444.79
  Q 501.27 432.01 519.75 433.54
  C 532.61 434.61 546.00 443.28 552.16 454.56
  Q 557.60 464.50 556.10 476.62
  Z"
/>
<path fill="#bbe7f7" d="
  M 669.37 598.44
  C 645.22 587.81 619.90 584.71 593.99 587.73
  Q 589.61 588.24 574.74 592.01
  Q 559.74 595.83 544.22 605.85
  Q 543.05 605.86 544.33 604.70
  Q 544.72 604.35 544.83 603.83
  Q 547.15 592.64 546.79 581.21
  A 0.87 0.86 0.7 0 0 545.98 580.38
  L 543.04 580.17
  A 2.40 2.40 0.0 0 1 540.82 578.08
  Q 540.18 573.18 544.75 571.51
  C 553.91 568.17 562.01 565.26 570.01 559.45
  C 588.36 546.10 602.59 525.80 603.63 502.50
  C 604.07 492.60 603.02 486.14 599.69 477.06
  C 598.33 473.35 596.30 470.09 594.21 466.77
  Q 592.37 463.85 589.98 464.38
  C 588.55 456.22 587.80 449.51 584.19 441.03
  Q 593.56 436.70 600.25 436.00
  C 618.51 434.09 634.43 435.56 649.47 443.87
  A 1.75 1.75 0.0 0 1 650.37 445.40
  L 650.34 466.15
  A 0.81 0.81 0.0 0 0 651.15 466.97
  L 667.99 466.99
  A 1.44 1.43 -0.0 0 1 669.43 468.42
  L 669.37 598.44
  Z"
/>
<path fill="#bbe3f7" d="
  M 438.95 452.00
  C 435.25 468.94 436.25 487.75 443.89 503.36
  Q 447.66 511.03 452.72 518.21
  Q 451.61 527.53 454.90 536.53
  C 461.11 553.57 474.91 564.69 490.38 573.01
  Q 490.80 573.24 491.27 573.23
  L 493.59 573.18
  Q 493.09 574.17 493.08 574.50
  Q 492.68 593.13 492.88 612.81
  Q 492.89 614.10 491.88 613.29
  C 463.54 590.73 426.51 582.45 390.39 588.75
  C 383.36 589.97 375.08 591.43 369.05 593.84
  Q 364.07 595.83 359.49 597.51
  Q 357.82 596.04 357.79 595.25
  Q 357.50 586.60 357.60 577.95
  C 358.00 541.24 357.82 504.50 357.76 467.80
  A 0.48 0.47 -0.6 0 1 358.23 467.33
  L 374.43 467.11
  A 0.65 0.65 0.0 0 0 375.07 466.44
  Q 374.72 456.43 374.98 446.25
  C 375.11 441.27 394.02 437.25 398.03 436.65
  C 411.99 434.56 426.69 434.86 440.13 439.65
  A 1.57 1.56 -66.5 0 1 440.99 441.85
  C 439.49 444.73 437.93 448.77 438.95 452.00
  Z"
/>
<path fill="#bbe5f7" d="
  M 321.97 461.46
  L 321.98 483.22
  Q 292.92 482.99 264.00 483.22
  C 258.06 483.27 248.56 483.78 247.55 475.56
  C 246.88 470.10 249.78 464.72 254.76 462.44
  Q 257.12 461.35 261.90 461.26
  C 265.16 461.20 268.56 461.00 271.70 461.03
  Q 296.78 461.27 321.97 461.46
  Z"
/>
<path fill="#bbf0f7" d="
  M 703.99 482.86
  L 703.98 461.30
  Q 731.83 461.32 759.50 461.33
  C 763.55 461.34 767.69 461.30 771.09 463.21
  C 777.14 466.60 780.21 474.68 775.39 480.39
  C 771.75 484.71 759.58 483.03 754.34 483.06
  Q 729.22 483.19 703.99 482.86
  Z"
/>
<path fill="#95c2ea" d="
  M 544.22 605.85
  L 534.92 613.10
  A 0.41 0.41 0.0 0 1 534.26 612.77
  L 534.26 573.74
  A 0.27 0.27 0.0 0 0 533.99 573.47
  L 526.04 573.50
  A 0.47 0.46 0.0 0 1 525.57 573.04
  L 525.84 546.70
  A 1.00 1.00 0.0 0 1 526.66 545.73
  C 550.77 541.36 573.78 525.20 583.38 502.28
  C 588.43 490.23 591.16 477.12 589.98 464.38
  Q 592.37 463.85 594.21 466.77
  C 596.30 470.09 598.33 473.35 599.69 477.06
  C 603.02 486.14 604.07 492.60 603.63 502.50
  C 602.59 525.80 588.36 546.10 570.01 559.45
  C 562.01 565.26 553.91 568.17 544.75 571.51
  Q 540.18 573.18 540.82 578.08
  A 2.40 2.40 0.0 0 0 543.04 580.17
  L 545.98 580.38
  A 0.87 0.86 0.7 0 1 546.79 581.21
  Q 547.15 592.64 544.83 603.83
  Q 544.72 604.35 544.33 604.70
  Q 543.05 605.86 544.22 605.85
  Z"
/>
<path fill="#bbeff7" d="
  M 321.81 509.71
  Q 321.92 512.35 321.93 515.00
  Q 322.04 568.24 321.88 621.48
  C 321.85 629.96 321.08 636.88 329.78 641.49
  Q 322.99 647.18 324.29 657.03
  Q 324.62 659.49 326.92 661.83
  C 330.03 664.98 332.06 666.09 336.75 666.17
  C 342.74 666.27 348.23 665.44 354.00 665.17
  C 364.59 664.69 374.94 663.38 385.50 663.09
  C 414.12 662.29 441.29 662.45 470.32 668.37
  C 474.40 669.21 478.64 670.58 482.87 671.67
  Q 486.68 672.66 489.78 675.12
  Q 490.18 675.44 490.68 675.30
  Q 491.83 674.99 492.97 675.18
  Q 492.99 686.59 501.97 692.52
  Q 502.07 693.07 500.60 693.57
  A 0.52 0.52 0.0 0 0 500.26 694.12
  C 500.89 699.49 500.62 704.78 500.72 710.18
  Q 500.80 715.26 502.20 718.32
  C 506.55 727.83 518.86 733.59 528.49 730.12
  Q 534.01 728.13 535.41 727.18
  Q 541.58 722.97 544.17 715.24
  C 545.52 711.20 545.15 706.41 545.17 702.00
  Q 545.22 689.23 545.04 675.95
  A 2.09 2.09 0.0 0 1 546.61 673.90
  C 549.87 673.07 553.39 671.43 556.33 670.60
  Q 566.01 667.85 575.99 666.45
  C 583.44 665.40 590.98 664.22 598.36 663.73
  C 625.67 661.93 647.01 663.04 676.66 665.09
  C 687.77 665.86 702.90 670.07 704.49 653.73
  Q 704.94 649.11 704.18 646.99
  Q 702.76 643.01 696.93 640.94
  Q 703.96 635.38 703.98 625.50
  Q 704.12 566.59 703.97 507.32
  Q 719.56 507.15 735.00 507.25
  C 748.78 507.33 764.47 507.02 779.25 507.36
  C 786.23 507.52 787.31 515.65 787.70 520.92
  C 789.59 546.66 788.92 572.53 784.20 597.94
  C 782.75 605.74 780.26 614.64 778.24 622.99
  Q 775.49 634.30 767.40 654.49
  Q 765.57 659.06 757.81 674.25
  C 741.63 705.89 719.53 733.43 691.05 756.89
  Q 671.62 772.89 653.31 783.32
  Q 603.18 811.89 542.88 818.86
  C 526.08 820.81 509.85 820.29 488.46 819.18
  C 481.86 818.84 475.36 817.61 468.76 816.66
  C 463.81 815.94 458.03 814.49 454.23 813.66
  Q 426.14 807.50 401.40 796.31
  C 376.66 785.12 352.47 771.07 331.72 753.47
  C 303.76 729.75 279.48 700.31 264.40 668.08
  Q 254.01 645.86 251.01 635.77
  Q 243.89 611.81 242.78 605.50
  Q 239.36 586.18 238.05 575.24
  C 235.91 557.34 236.70 537.53 238.05 519.00
  C 238.63 511.14 241.61 507.40 249.67 507.17
  C 261.16 506.85 273.89 507.24 284.12 507.16
  Q 301.90 507.00 319.69 507.29
  A 0.99 0.97 -15.4 0 1 320.50 507.74
  Q 320.83 508.26 320.87 508.84
  Q 320.91 509.31 321.31 509.55
  Q 321.53 509.68 321.81 509.71
  Z"
/>
<path fill="#95d3ea" d="
  M 452.72 518.21
  Q 456.22 522.04 459.29 525.19
  C 470.89 537.13 484.44 542.97 500.65 546.15
  Q 501.08 546.24 501.08 546.68
  L 501.04 572.57
  Q 501.04 573.03 500.58 573.04
  L 493.59 573.18
  L 491.27 573.23
  Q 490.80 573.24 490.38 573.01
  C 474.91 564.69 461.11 553.57 454.90 536.53
  Q 451.61 527.53 452.72 518.21
  Z"
/>
<path fill="#95c8ea" d="
  M 440.10 613.12
  C 441.76 613.68 444.07 613.59 445.81 613.87
  Q 446.39 613.97 445.81 614.06
  C 443.65 614.42 441.07 613.62 439.40 613.44
  Q 413.72 610.68 388.06 612.96
  A 0.02 0.02 0.0 0 1 388.06 612.92
  C 391.15 612.53 394.33 611.65 397.21 611.38
  Q 412.11 610.01 427.05 610.96
  C 430.92 611.21 436.33 611.86 440.10 613.12
  Z"
/>
<path fill="#95c0ea" d="
  M 580.22 613.97
  A 0.09 0.09 0.0 0 1 580.18 613.80
  Q 587.22 611.86 594.88 611.12
  Q 624.67 608.28 653.42 615.58
  A 0.06 0.06 0.0 0 1 653.40 615.69
  Q 650.43 615.22 647.28 614.76
  Q 636.86 613.23 626.36 612.59
  Q 612.82 611.76 599.25 612.12
  Q 589.84 612.37 580.22 613.97
  Z"
/>
<path fill="#95dbea" d="
  M 492.97 675.18
  Q 491.83 674.99 490.68 675.30
  Q 490.18 675.44 489.78 675.12
  Q 486.68 672.66 482.87 671.67
  C 478.64 670.58 474.40 669.21 470.32 668.37
  C 441.29 662.45 414.12 662.29 385.50 663.09
  C 374.94 663.38 364.59 664.69 354.00 665.17
  C 348.23 665.44 342.74 666.27 336.75 666.17
  C 332.06 666.09 330.03 664.98 326.92 661.83
  Q 324.62 659.49 324.29 657.03
  Q 322.99 647.18 329.78 641.49
  Q 335.76 644.56 341.99 643.43
  C 386.02 635.47 431.79 630.48 475.25 642.15
  Q 482.07 643.99 491.24 648.25
  Q 492.81 648.98 492.79 650.25
  Q 492.67 662.76 492.97 675.18
  Z"
/>
<path fill="#95d1ea" d="
  M 696.93 640.94
  Q 702.76 643.01 704.18 646.99
  Q 704.94 649.11 704.49 653.73
  C 702.90 670.07 687.77 665.86 676.66 665.09
  C 647.01 663.04 625.67 661.93 598.36 663.73
  C 590.98 664.22 583.44 665.40 575.99 666.45
  Q 566.01 667.85 556.33 670.60
  C 553.39 671.43 549.87 673.07 546.61 673.90
  A 2.09 2.09 0.0 0 0 545.04 675.95
  Q 545.22 689.23 545.17 702.00
  C 545.15 706.41 545.52 711.20 544.17 715.24
  Q 541.58 722.97 535.41 727.18
  Q 534.01 728.13 528.49 730.12
  C 518.86 733.59 506.55 727.83 502.20 718.32
  Q 500.80 715.26 500.72 710.18
  C 500.62 704.78 500.89 699.49 500.26 694.12
  A 0.52 0.52 0.0 0 1 500.60 693.57
  Q 502.07 693.07 501.97 692.52
  C 517.06 702.02 534.09 691.78 534.18 674.24
  Q 534.25 661.62 534.08 649.26
  A 1.83 1.82 -11.5 0 1 535.22 647.54
  C 568.99 634.02 607.56 633.09 643.83 637.23
  C 656.20 638.64 670.53 641.49 683.86 643.68
  Q 690.26 644.73 696.93 640.94
  Z"
/>
</svg>
